<svg width="300" height="300" viewBox="0 0 300 300" fill="none" stroke="none" version="1.1"
     xmlns:xlink="http://www.w3.org/1999/xlink" xmlns="http://www.w3.org/2000/svg">
    <defs>
        <path id="path_1"
              d="M250 0C277.618 0 300 22.382 300 50L300 250C300 277.618 277.618 300 250 300L50 300C22.382 300 0 277.618 0 250L0 50C0 22.382 22.382 0 50 0L250 0Z"/>
        <rect id="rect_2" x="0" y="0" width="300" height="300"/>
        <clipPath id="clip_path_3">
            <use xlink:href="#rect_2"/>
        </clipPath>
    </defs>
    <g id="Frame" opacity="1" clip-path="url(#clip_path_3)">
        <g class="background" style="fill:#121212;fill-rule:evenodd;mix-blend-mode:normal;">
            <use xlink:href="#path_1"/>
            <g>
                <path id="logo-path"
                      d="M155.46 29.9994C156.536 29.9993 157.511 29.6848 158.384 29.0557C159.257 28.4265 159.864 27.6015 160.204 26.5807L166.871 6.58105C167.125 5.81873 167.191 5.04045 167.07 4.24589C166.949 3.45147 166.653 2.72834 166.183 2.07638C165.714 1.42437 165.121 0.915379 164.405 0.549152C163.69 0.183117 162.931 0 162.127 0L33.1874 0C31.9352 0 30.8381 0.412128 29.8957 1.23641C28.9533 2.0606 28.3985 3.0932 28.232 4.33405L24.783 30L155.46 29.9994ZM59.1682 70.0001L106.288 70.0001C107.092 70.0001 107.851 70.1832 108.566 70.5492C109.282 70.9153 109.874 71.4243 110.344 72.0763C110.814 72.728 111.11 73.4512 111.231 74.2457C111.352 75.04 111.286 75.8182 111.032 76.5806L97.7038 116.581C97.3636 117.602 96.757 118.427 95.8839 119.056C95.0111 119.686 94.0364 120 92.9602 120L57.9783 120C56.7175 120 55.6145 120.418 54.6692 121.252C53.7241 122.086 53.1733 123.129 53.0169 124.38L41.0643 220L66.5212 205.19C67.1679 204.813 67.7031 204.317 68.127 203.7C68.551 203.084 68.8228 202.406 68.9424 201.668L76.6338 154.2C76.8298 152.99 77.3949 151.987 78.3289 151.192C79.2628 150.398 80.3431 150 81.5694 150L114.96 150C116.037 150 117.011 149.686 117.884 149.057C118.757 148.427 119.364 147.602 119.704 146.581L153.031 46.5808C153.285 45.8185 153.352 45.0399 153.23 44.2457C153.109 43.4515 152.814 42.7283 152.344 42.0762C151.874 41.4242 151.281 40.9152 150.566 40.5491C149.851 40.183 149.091 40 148.288 40L52.5015 40C51.6979 40 50.9383 40.1828 50.223 40.549C49.5076 40.9154 48.9151 41.4244 48.4452 42.0763C47.9753 42.7285 47.6798 43.4516 47.5586 44.2459C47.4374 45.0404 47.5039 45.8189 47.7581 46.5811L54.4248 66.5813C54.765 67.6022 55.3717 68.4273 56.2446 69.0564C57.1177 69.6855 58.0921 70.0001 59.1682 70.0001L59.1682 70.0001ZM36.0643 180C36.0643 180 10.9727 165.662 10.9727 165.662C10.0929 165.159 9.42734 164.454 8.97629 163.547C8.52512 162.639 8.36471 161.683 8.49495 160.678C8.49495 160.678 14.3328 115.643 14.3328 115.643C14.4253 114.929 14.3666 114.229 14.1569 113.541C13.947 112.853 13.6049 112.239 13.1302 111.699C12.6556 111.159 12.0906 110.741 11.4356 110.445C10.7805 110.148 10.0933 110 9.37424 110C9.37424 110 5.00137 110 5.00137 110C4.19793 110 3.43843 109.817 2.72298 109.451C2.00772 109.085 1.415 108.575 0.94532 107.923C0.475197 107.271 0.179871 106.548 0.0586853 105.754C-0.0625 104.959 0.00402832 104.181 0.257912 103.419C0.257912 103.419 6.92471 83.4184 6.92471 83.4184C7.26485 82.3975 7.87158 81.5726 8.74451 80.9434C9.61743 80.3142 10.5919 79.9996 11.6681 79.9996C11.6681 79.9996 13.6912 79.9996 13.6912 79.9996C14.9432 79.9996 16.0404 79.5873 16.9829 78.763C17.9254 77.9388 18.48 76.9064 18.6467 75.6655L23.4392 40L29.83 40C32.5353 40 35.4221 42.0805 36.2777 44.647C39.5618 54.4973 46.9245 76.5811 46.9245 76.5811C47.2648 77.6019 47.8715 78.4269 48.7446 79.056C49.6174 79.6851 50.5919 79.9996 51.6679 79.9996C51.6679 79.9996 91.1272 79.9996 91.1272 79.9996C91.9308 79.9996 92.6903 80.1827 93.4057 80.5488C94.121 80.9152 94.7136 81.4242 95.1836 82.0761C95.6534 82.728 95.9487 83.4512 96.0699 84.2456C96.1913 85.0398 96.1246 85.8184 95.8707 86.5808C95.8707 86.5808 89.204 106.581 89.204 106.581C88.8638 107.602 88.257 108.427 87.3841 109.056C86.5112 109.685 85.5367 110 84.4605 110C84.4605 110 49.4626 110 49.4626 110C48.2051 110 47.1043 110.415 46.1602 111.245C45.216 112.076 44.6638 113.115 44.5035 114.362L36.0643 180L36.0643 180Z"
                      style="fill:#00FFB3;fill-rule:evenodd;mix-blend-mode:normal;" transform="translate(68 46)"/>
            </g>
            <path d="M300 50C300 22.382 277.618 0 250 0L50 0C22.382 0 0 22.382 0 50L0 250C0 277.618 22.382 300 50 300L250 300C277.618 300 300 277.618 300 250L300 50ZM50 2.99994L250 3Q269.471 3 283.235 16.7646Q297 30.5293 297 50L297 250Q297 269.471 283.235 283.235Q269.471 297 250 297L50 297Q30.5293 297 16.7645 283.235Q3 269.471 3 250L3 50Q3 30.5293 16.7645 16.7646Q30.5293 3 50 2.99994Z"
                  fill-rule="evenodd" style="fill:#333841;fill-rule:evenodd;"/>
        </g>
    </g>
</svg>